<svg width="932" height="391" xmlns="http://www.w3.org/2000/svg" xmlns:xlink="http://www.w3.org/1999/xlink" xml:space="preserve" overflow="hidden"><g transform="translate(-16 -241)"><g><g><g><g><g><path d="M3.79512 168.387 22.9282 168.387C29.2535 168.387 32.416 165.223 32.416 158.899L32.416 30.361C32.416 24.0357 35.5787 20.8732 41.9038 20.8732L61.037 20.8732 41.9038 20.8732C35.5787 20.8732 32.416 24.0357 32.416 30.361L32.416 158.899C32.416 165.223 29.2535 168.387 22.9282 168.387L3.79512 168.387M13.2829 164.592 13.2829 172.182M61.037 17.078 51.5492 20.8732 61.037 24.6683" stroke="#D3D3D3" stroke-width="0.94878" stroke-linecap="butt" stroke-linejoin="miter" stroke-miterlimit="4" stroke-opacity="1" fill="none" fill-rule="nonzero" transform="matrix(1.00231 0 0 1 209.827 266.668)"/><text fill="#000000" fill-opacity="1" font-family="Open Sans,Open Sans_MSFontService,sans-serif" font-style="normal" font-variant="normal" font-weight="400" font-stretch="normal" font-size="14" text-anchor="start" direction="ltr" writing-mode="lr-tb" unicode-bidi="normal" text-decoration="none" transform="matrix(0.95097 0 0 0.94878 216.484 432)">1</text><text fill="#000000" fill-opacity="1" font-family="Open Sans,Open Sans_MSFontService,sans-serif" font-style="normal" font-variant="normal" font-weight="400" font-stretch="normal" font-size="14" text-anchor="start" direction="ltr" writing-mode="lr-tb" unicode-bidi="normal" text-decoration="none" transform="matrix(0.95097 0 0 0.94878 260.819 285)">*</text></g><g><path d="M3.79512 51.2341 35.6947 51.2341C42.02 51.2341 45.1825 48.0716 45.1825 41.7463L45.1825 30.361C45.1825 24.0357 48.3451 20.8732 54.6703 20.8732L86.57 20.8732 54.6703 20.8732C48.3451 20.8732 45.1825 24.0357 45.1825 30.361L45.1825 41.7463C45.1825 48.0716 42.02 51.2341 35.6947 51.2341L3.79512 51.2341M3.79512 47.439 13.2829 51.2341 3.79512 55.0293M77.0822 17.078 77.0822 24.6683" stroke="#D3D3D3" stroke-width="0.94878" stroke-linecap="butt" stroke-linejoin="miter" stroke-miterlimit="4" stroke-opacity="1" fill="none" fill-rule="nonzero" transform="matrix(1.00231 0 0 1 412.333 266.668)"/><text fill="#000000" fill-opacity="1" font-family="Open Sans,Open Sans_MSFontService,sans-serif" font-style="normal" font-variant="normal" font-weight="400" font-stretch="normal" font-size="14" text-anchor="start" direction="ltr" writing-mode="lr-tb" unicode-bidi="normal" text-decoration="none" transform="matrix(0.95097 0 0 0.94878 418.99 315)">*</text><text fill="#000000" fill-opacity="1" font-family="Open Sans,Open Sans_MSFontService,sans-serif" font-style="normal" font-variant="normal" font-weight="400" font-stretch="normal" font-size="14" text-anchor="start" direction="ltr" writing-mode="lr-tb" unicode-bidi="normal" text-decoration="none" transform="matrix(0.95097 0 0 0.94878 488.638 285)">1</text></g><g><path d="M3.79512 20.8732 32.416 20.8732C32.416 20.8732 32.416 20.8732 32.416 20.8732 32.416 20.8732 32.416 20.8732 32.416 20.8732L61.037 20.8732 32.416 20.8732C32.416 20.8732 32.416 20.8732 32.416 20.8732 32.416 20.8732 32.416 20.8732 32.416 20.8732L3.79512 20.8732M13.2829 17.078 13.2829 24.6683M61.037 17.078 51.5492 20.8732 61.037 24.6683" stroke="#D3D3D3" stroke-width="0.94878" stroke-linecap="butt" stroke-linejoin="miter" stroke-miterlimit="4" stroke-opacity="1" fill="none" fill-rule="nonzero" transform="matrix(1.00231 0 0 1 209.827 414.182)"/><text fill="#000000" fill-opacity="1" font-family="Open Sans,Open Sans_MSFontService,sans-serif" font-style="normal" font-variant="normal" font-weight="400" font-stretch="normal" font-size="14" text-anchor="start" direction="ltr" writing-mode="lr-tb" unicode-bidi="normal" text-decoration="none" transform="matrix(0.95097 0 0 0.94878 216.484 432)">1</text><text fill="#000000" fill-opacity="1" font-family="Open Sans,Open Sans_MSFontService,sans-serif" font-style="normal" font-variant="normal" font-weight="400" font-stretch="normal" font-size="14" text-anchor="start" direction="ltr" writing-mode="lr-tb" unicode-bidi="normal" text-decoration="none" transform="matrix(0.95097 0 0 0.94878 260.819 432)">*</text></g><g><path d="M3.79512 66.4146 30.3829 66.4146C36.708 66.4146 39.8707 63.2521 39.8707 56.9268L39.8707 30.361C39.8707 24.0357 43.0333 20.8732 49.3585 20.8732L75.9462 20.8732 49.3585 20.8732C43.0333 20.8732 39.8707 24.0357 39.8707 30.361L39.8707 56.9268C39.8707 63.2521 36.708 66.4146 30.3829 66.4146L3.79512 66.4146M3.79512 62.6195 13.2829 66.4146 3.79512 70.2098M66.4584 17.078 66.4584 24.6683" stroke="#D3D3D3" stroke-width="0.94878" stroke-linecap="butt" stroke-linejoin="miter" stroke-miterlimit="4" stroke-opacity="1" fill="none" fill-rule="nonzero" transform="matrix(1.00231 0 0 1 422.981 399.001)"/><text fill="#000000" fill-opacity="1" font-family="Open Sans,Open Sans_MSFontService,sans-serif" font-style="normal" font-variant="normal" font-weight="400" font-stretch="normal" font-size="14" text-anchor="start" direction="ltr" writing-mode="lr-tb" unicode-bidi="normal" text-decoration="none" transform="matrix(0.95097 0 0 0.94878 429.638 463)">*</text><text fill="#000000" fill-opacity="1" font-family="Open Sans,Open Sans_MSFontService,sans-serif" font-style="normal" font-variant="normal" font-weight="400" font-stretch="normal" font-size="14" text-anchor="start" direction="ltr" writing-mode="lr-tb" unicode-bidi="normal" text-decoration="none" transform="matrix(0.95097 0 0 0.94878 488.637 417)">1</text></g><g><path d="M3.79512 20.8732 22.9282 20.8732C29.2535 20.8732 32.416 24.0357 32.416 30.361L32.416 183.024C32.416 189.35 35.5787 192.512 41.9038 192.512L61.037 192.512 41.9038 192.512C35.5787 192.512 32.416 189.35 32.416 183.024L32.416 30.361C32.416 24.0357 29.2535 20.8732 22.9282 20.8732L3.79512 20.8732M13.2829 17.078 13.2829 24.6683M61.037 188.717 51.5492 192.512 61.037 196.307" stroke="#D3D3D3" stroke-width="0.94878" stroke-linecap="butt" stroke-linejoin="miter" stroke-miterlimit="4" stroke-opacity="1" fill="none" fill-rule="nonzero" transform="matrix(1.00231 0 0 1 209.827 414.182)"/><text fill="#000000" fill-opacity="1" font-family="Open Sans,Open Sans_MSFontService,sans-serif" font-style="normal" font-variant="normal" font-weight="400" font-stretch="normal" font-size="14" text-anchor="start" direction="ltr" writing-mode="lr-tb" unicode-bidi="normal" text-decoration="none" transform="matrix(0.95097 0 0 0.94878 216.484 432)">1</text><text fill="#000000" fill-opacity="1" font-family="Open Sans,Open Sans_MSFontService,sans-serif" font-style="normal" font-variant="normal" font-weight="400" font-stretch="normal" font-size="14" text-anchor="start" direction="ltr" writing-mode="lr-tb" unicode-bidi="normal" text-decoration="none" transform="matrix(0.95097 0 0 0.94878 260.819 604)">*</text></g><g><path d="M3.79512 20.8732 22.9282 20.8732C29.2535 20.8732 32.416 24.0357 32.416 30.361L32.416 152.664C32.416 158.989 35.5787 162.151 41.9038 162.151L61.037 162.151 41.9038 162.151C35.5787 162.151 32.416 158.989 32.416 152.664L32.416 30.361C32.416 24.0357 29.2535 20.8732 22.9282 20.8732L3.79512 20.8732M13.2829 17.078 13.2829 24.6683M61.037 158.356 51.5492 162.151 61.037 165.946" stroke="#D3D3D3" stroke-width="0.94878" stroke-linecap="butt" stroke-linejoin="miter" stroke-miterlimit="4" stroke-opacity="1" fill="none" fill-rule="nonzero" transform="matrix(1.00231 0 0 1 209.827 414.182)"/><text fill="#000000" fill-opacity="1" font-family="Open Sans,Open Sans_MSFontService,sans-serif" font-style="normal" font-variant="normal" font-weight="400" font-stretch="normal" font-size="14" text-anchor="start" direction="ltr" writing-mode="lr-tb" unicode-bidi="normal" text-decoration="none" transform="matrix(0.95097 0 0 0.94878 216.484 432)">1</text><text fill="#000000" fill-opacity="1" font-family="Open Sans,Open Sans_MSFontService,sans-serif" font-style="normal" font-variant="normal" font-weight="400" font-stretch="normal" font-size="14" text-anchor="start" direction="ltr" writing-mode="lr-tb" unicode-bidi="normal" text-decoration="none" transform="matrix(0.95097 0 0 0.94878 260.819 573)">*</text></g><g><path d="M3.79512 20.8732 39.8269 20.8732C39.8269 20.8732 39.8269 20.8732 39.8269 20.8732 39.8269 20.8732 39.8269 20.8732 39.8269 20.8732L75.8587 20.8732 39.8269 20.8732C39.8269 20.8732 39.8269 20.8732 39.8269 20.8732 39.8269 20.8732 39.8269 20.8732 39.8269 20.8732L3.79512 20.8732M13.2829 17.078 13.2829 24.6683M75.8587 17.078 66.3709 20.8732 75.8587 24.6683" stroke="#D3D3D3" stroke-width="0.94878" stroke-linecap="butt" stroke-linejoin="miter" stroke-miterlimit="4" stroke-opacity="1" fill="none" fill-rule="nonzero" transform="matrix(1.00231 0 0 1 644.578 266.668)"/><text fill="#000000" fill-opacity="1" font-family="Open Sans,Open Sans_MSFontService,sans-serif" font-style="normal" font-variant="normal" font-weight="400" font-stretch="normal" font-size="14" text-anchor="start" direction="ltr" writing-mode="lr-tb" unicode-bidi="normal" text-decoration="none" transform="matrix(0.95097 0 0 0.94878 651.235 285)">1</text><text fill="#000000" fill-opacity="1" font-family="Open Sans,Open Sans_MSFontService,sans-serif" font-style="normal" font-variant="normal" font-weight="400" font-stretch="normal" font-size="14" text-anchor="start" direction="ltr" writing-mode="lr-tb" unicode-bidi="normal" text-decoration="none" transform="matrix(0.95097 0 0 0.94878 710.426 285)">*</text></g><g><path d="M3.79512 20.8732 30.3391 20.8732C36.6643 20.8732 39.8269 24.0357 39.8269 30.361L39.8269 41.7463C39.8269 48.0716 42.9895 51.2341 49.3147 51.2341L75.8587 51.2341 49.3147 51.2341C42.9895 51.2341 39.8269 48.0716 39.8269 41.7463L39.8269 30.361C39.8269 24.0357 36.6643 20.8732 30.3391 20.8732L3.79512 20.8732M13.2829 17.078 13.2829 24.6683M75.8587 47.439 66.3709 51.2341 75.8587 55.0293" stroke="#D3D3D3" stroke-width="0.94878" stroke-linecap="butt" stroke-linejoin="miter" stroke-miterlimit="4" stroke-opacity="1" fill="none" fill-rule="nonzero" transform="matrix(1.00231 0 0 1 644.578 266.668)"/><text fill="#000000" fill-opacity="1" font-family="Open Sans,Open Sans_MSFontService,sans-serif" font-style="normal" font-variant="normal" font-weight="400" font-stretch="normal" font-size="14" text-anchor="start" direction="ltr" writing-mode="lr-tb" unicode-bidi="normal" text-decoration="none" transform="matrix(0.95097 0 0 0.94878 651.235 285)">1</text><text fill="#000000" fill-opacity="1" font-family="Open Sans,Open Sans_MSFontService,sans-serif" font-style="normal" font-variant="normal" font-weight="400" font-stretch="normal" font-size="14" text-anchor="start" direction="ltr" writing-mode="lr-tb" unicode-bidi="normal" text-decoration="none" transform="matrix(0.95097 0 0 0.94878 710.426 315)">*</text></g><g><path d="M3.79512 20.8732 27.0049 20.8732C27.0049 20.8732 27.0049 20.8732 27.0049 20.8732 27.0049 20.8732 27.0049 20.8732 27.0049 20.8732L50.2147 20.8732 27.0049 20.8732C27.0049 20.8732 27.0049 20.8732 27.0049 20.8732 27.0049 20.8732 27.0049 20.8732 27.0049 20.8732L3.79512 20.8732M13.2829 17.078 13.2829 24.6683M50.2147 17.078 40.7269 20.8732 50.2147 24.6683" stroke="#D3D3D3" stroke-width="0.94878" stroke-linecap="butt" stroke-linejoin="miter" stroke-miterlimit="4" stroke-opacity="1" fill="none" fill-rule="nonzero" transform="matrix(1.00231 0 0 1 670.281 399.001)"/><text fill="#000000" fill-opacity="1" font-family="Open Sans,Open Sans_MSFontService,sans-serif" font-style="normal" font-variant="normal" font-weight="400" font-stretch="normal" font-size="14" text-anchor="start" direction="ltr" writing-mode="lr-tb" unicode-bidi="normal" text-decoration="none" transform="matrix(0.95097 0 0 0.94878 676.938 417)">1</text><text fill="#000000" fill-opacity="1" font-family="Open Sans,Open Sans_MSFontService,sans-serif" font-style="normal" font-variant="normal" font-weight="400" font-stretch="normal" font-size="14" text-anchor="start" direction="ltr" writing-mode="lr-tb" unicode-bidi="normal" text-decoration="none" transform="matrix(0.95097 0 0 0.94878 710.426 417)">*</text></g><g><path d="M3.79512 20.8732 17.5171 20.8732C23.8423 20.8732 27.0049 24.0357 27.0049 30.361L27.0049 41.7463C27.0049 48.0716 30.1675 51.2341 36.4928 51.2341L50.2147 51.2341 36.4928 51.2341C30.1675 51.2341 27.0049 48.0716 27.0049 41.7463L27.0049 30.361C27.0049 24.0357 23.8423 20.8732 17.5171 20.8732L3.79512 20.8732M13.2829 17.078 13.2829 24.6683M50.2147 47.439 40.7269 51.2341 50.2147 55.0293" stroke="#D3D3D3" stroke-width="0.94878" stroke-linecap="butt" stroke-linejoin="miter" stroke-miterlimit="4" stroke-opacity="1" fill="none" fill-rule="nonzero" transform="matrix(1.00231 0 0 1 670.281 399.001)"/><text fill="#000000" fill-opacity="1" font-family="Open Sans,Open Sans_MSFontService,sans-serif" font-style="normal" font-variant="normal" font-weight="400" font-stretch="normal" font-size="14" text-anchor="start" direction="ltr" writing-mode="lr-tb" unicode-bidi="normal" text-decoration="none" transform="matrix(0.95097 0 0 0.94878 676.938 417)">1</text><text fill="#000000" fill-opacity="1" font-family="Open Sans,Open Sans_MSFontService,sans-serif" font-style="normal" font-variant="normal" font-weight="400" font-stretch="normal" font-size="14" text-anchor="start" direction="ltr" writing-mode="lr-tb" unicode-bidi="normal" text-decoration="none" transform="matrix(0.95097 0 0 0.94878 710.426 447)">*</text></g><g><path d="M0 0 197.176 0 197.176 30.361 6.94908e-06 30.361Z" fill="#316896" fill-rule="nonzero" fill-opacity="1" transform="matrix(1.00231 0 0 1 16 389.514)"/><text fill="#FFFFFF" fill-opacity="1" font-family="Open Sans,Open Sans_MSFontService,sans-serif" font-style="normal" font-variant="normal" font-weight="700" font-stretch="normal" font-size="13" text-anchor="start" direction="ltr" writing-mode="lr-tb" unicode-bidi="normal" text-decoration="none" transform="matrix(0.95097 0 0 0.94878 25.5097 408)">Article</text></g><g><path d="M0 0 197.176 0 197.176 30.361 6.94908e-06 30.361Z" fill="#F2F2F2" fill-rule="nonzero" fill-opacity="1" transform="matrix(1.00231 0 0 1 16 419.875)"/><text fill="#6F6F6F" fill-opacity="1" font-family="Open Sans,Open Sans_MSFontService,sans-serif" font-style="normal" font-variant="normal" font-weight="700" font-stretch="normal" font-size="13" text-anchor="start" direction="ltr" writing-mode="lr-tb" unicode-bidi="normal" text-decoration="none" transform="matrix(0.95097 0 0 0.94878 25.5097 438)">id</text><path d="M6.22637 0.933979C7.77383 0.933979 9.02822 2.18836 9.02822 3.73582 9.02822 5.28328 7.77383 6.53767 6.22637 6.53767 5.8573 6.53767 5.50501 6.46622 5.18224 6.33652L4.35851 7.16035 3.73582 7.16035 3.73582 8.09433 2.80184 8.09433 2.80184 9.02822 0.933979 9.02822 0.933979 7.16035 3.54464 4.54959C3.46476 4.28574 3.42434 4.01154 3.42453 3.73582 3.42453 2.18836 4.67891 0.933979 6.22637 0.933979ZM6.22637 0C4.16325 0 2.49055 1.67242 2.49055 3.73582 2.49055 3.90765 2.50222 4.07871 2.52556 4.24788L0.136719 6.63672C0.0492417 6.72429 0 6.84308 0 6.9669L0 9.4952C0 9.75318 0.209111 9.9622 0.46699 9.9622L3.26883 9.9622C3.52671 9.9622 3.73582 9.75318 3.73582 9.4952L3.73582 9.02822 4.20281 9.02822C4.46069 9.02822 4.6698 8.8192 4.6698 8.56123L4.6698 8.17213 5.44904 7.39053C5.70312 7.44451 5.9629 7.47165 6.22637 7.47165 8.2895 7.47165 9.9622 5.79923 9.9622 3.73582 9.9622 1.6727 8.28978 0 6.22637 0ZM6.22637 2.80184C6.22637 3.3177 6.6445 3.73582 7.16035 3.73582 7.67611 3.73582 8.09433 3.3177 8.09433 2.80184 8.09433 2.28609 7.67611 1.86796 7.16035 1.86796 6.6445 1.86796 6.22637 2.28609 6.22637 2.80184Z" fill="#6F6F6F" fill-rule="nonzero" fill-opacity="1" transform="matrix(1.00231 0 0 1 40.9095 428.651)"/><text fill="#999999" fill-opacity="1" font-family="Open Sans,Open Sans_MSFontService,sans-serif" font-style="normal" font-variant="normal" font-weight="700" font-stretch="normal" font-size="13" text-anchor="start" direction="ltr" writing-mode="lr-tb" unicode-bidi="normal" text-decoration="none" transform="matrix(0.95097 0 0 0.94878 186.857 438)">int</text></g><g><path d="M0 0 197.176 0 197.176 30.361 6.94908e-06 30.361Z" fill="#F2F2F2" fill-rule="nonzero" fill-opacity="1" transform="matrix(1.00231 0 0 1 16 450.236)"/><text fill="#6F6F6F" fill-opacity="1" font-family="Open Sans,Open Sans_MSFontService,sans-serif" font-style="normal" font-variant="normal" font-weight="400" font-stretch="normal" font-size="13" text-anchor="start" direction="ltr" writing-mode="lr-tb" unicode-bidi="normal" text-decoration="none" transform="matrix(0.95097 0 0 0.94878 25.5097 468)">title</text><text fill="#999999" fill-opacity="1" font-family="Open Sans,Open Sans_MSFontService,sans-serif" font-style="normal" font-variant="normal" font-weight="400" font-stretch="normal" font-size="13" text-anchor="start" direction="ltr" writing-mode="lr-tb" unicode-bidi="normal" text-decoration="none" transform="matrix(0.95097 0 0 0.94878 160.599 468)">varchar</text></g><g><path d="M0 0 197.176 0 197.176 30.361 6.94908e-06 30.361Z" fill="#F2F2F2" fill-rule="nonzero" fill-opacity="1" transform="matrix(1.00231 0 0 1 16 480.596)"/><text fill="#6F6F6F" fill-opacity="1" font-family="Open Sans,Open Sans_MSFontService,sans-serif" font-style="normal" font-variant="normal" font-weight="400" font-stretch="normal" font-size="13" text-anchor="start" direction="ltr" writing-mode="lr-tb" unicode-bidi="normal" text-decoration="none" transform="matrix(0.95097 0 0 0.94878 25.5097 499)">doi</text><text fill="#999999" fill-opacity="1" font-family="Open Sans,Open Sans_MSFontService,sans-serif" font-style="normal" font-variant="normal" font-weight="400" font-stretch="normal" font-size="13" text-anchor="start" direction="ltr" writing-mode="lr-tb" unicode-bidi="normal" text-decoration="none" transform="matrix(0.95097 0 0 0.94878 183.803 499)">link</text></g><g><path d="M0 0 197.176 0 197.176 30.361 6.94908e-06 30.361Z" fill="#F2F2F2" fill-rule="nonzero" fill-opacity="1" transform="matrix(1.00231 0 0 1 16 510.957)"/><text fill="#6F6F6F" fill-opacity="1" font-family="Open Sans,Open Sans_MSFontService,sans-serif" font-style="normal" font-variant="normal" font-weight="400" font-stretch="normal" font-size="13" text-anchor="start" direction="ltr" writing-mode="lr-tb" unicode-bidi="normal" text-decoration="none" transform="matrix(0.95097 0 0 0.94878 25.5097 529)">publication_date</text><text fill="#999999" fill-opacity="1" font-family="Open Sans,Open Sans_MSFontService,sans-serif" font-style="normal" font-variant="normal" font-weight="400" font-stretch="normal" font-size="13" text-anchor="start" direction="ltr" writing-mode="lr-tb" unicode-bidi="normal" text-decoration="none" transform="matrix(0.95097 0 0 0.94878 178.339 529)">date</text></g><g><path d="M0 0 148.936 0 148.936 30.361-1.9689e-06 30.361Z" fill="#316896" fill-rule="nonzero" fill-opacity="1" transform="matrix(1.00231 0 0 1 499.103 242)"/><text fill="#FFFFFF" fill-opacity="1" font-family="Open Sans,Open Sans_MSFontService,sans-serif" font-style="normal" font-variant="normal" font-weight="700" font-stretch="normal" font-size="13" text-anchor="start" direction="ltr" writing-mode="lr-tb" unicode-bidi="normal" text-decoration="none" transform="matrix(0.95097 0 0 0.94878 508.613 260)">Topic</text></g><g><path d="M0 0 148.936 0 148.936 30.361-1.9689e-06 30.361Z" fill="#F2F2F2" fill-rule="nonzero" fill-opacity="1" transform="matrix(1.00231 0 0 1 499.103 272.361)"/><text fill="#6F6F6F" fill-opacity="1" font-family="Open Sans,Open Sans_MSFontService,sans-serif" font-style="normal" font-variant="normal" font-weight="700" font-stretch="normal" font-size="13" text-anchor="start" direction="ltr" writing-mode="lr-tb" unicode-bidi="normal" text-decoration="none" transform="matrix(0.95097 0 0 0.94878 508.613 291)">id</text><path d="M6.22637 0.933979C7.77383 0.933979 9.02822 2.18836 9.02822 3.73582 9.02822 5.28328 7.77383 6.53767 6.22637 6.53767 5.8573 6.53767 5.50501 6.46622 5.18224 6.33652L4.35851 7.16035 3.73582 7.16035 3.73582 8.09433 2.80184 8.09433 2.80184 9.02822 0.933979 9.02822 0.933979 7.16035 3.54464 4.54959C3.46476 4.28574 3.42434 4.01154 3.42453 3.73582 3.42453 2.18836 4.67891 0.933979 6.22637 0.933979ZM6.22637 0C4.16325 0 2.49055 1.67242 2.49055 3.73582 2.49055 3.90765 2.50222 4.07871 2.52556 4.24788L0.136719 6.63672C0.0492417 6.72429 0 6.84308 0 6.9669L0 9.4952C0 9.75318 0.209111 9.9622 0.46699 9.9622L3.26883 9.9622C3.52671 9.9622 3.73582 9.75318 3.73582 9.4952L3.73582 9.02822 4.20281 9.02822C4.46069 9.02822 4.6698 8.8192 4.6698 8.56123L4.6698 8.17213 5.44904 7.39053C5.70312 7.44451 5.9629 7.47165 6.22637 7.47165 8.2895 7.47165 9.9622 5.79923 9.9622 3.73582 9.9622 1.6727 8.28978 0 6.22637 0ZM6.22637 2.80184C6.22637 3.3177 6.6445 3.73582 7.16035 3.73582 7.67611 3.73582 8.09433 3.3177 8.09433 2.80184 8.09433 2.28609 7.67611 1.86796 7.16035 1.86796 6.6445 1.86796 6.22637 2.28609 6.22637 2.80184Z" fill="#6F6F6F" fill-rule="nonzero" fill-opacity="1" transform="matrix(1.00231 0 0 1 524.013 281.137)"/><text fill="#999999" fill-opacity="1" font-family="Open Sans,Open Sans_MSFontService,sans-serif" font-style="normal" font-variant="normal" font-weight="700" font-stretch="normal" font-size="13" text-anchor="start" direction="ltr" writing-mode="lr-tb" unicode-bidi="normal" text-decoration="none" transform="matrix(0.95097 0 0 0.94878 621.608 291)">int</text></g><g><path d="M0 0 148.936 0 148.936 30.361-1.9689e-06 30.361Z" fill="#F2F2F2" fill-rule="nonzero" fill-opacity="1" transform="matrix(1.00231 0 0 1 499.103 302.722)"/><text fill="#6F6F6F" fill-opacity="1" font-family="Open Sans,Open Sans_MSFontService,sans-serif" font-style="normal" font-variant="normal" font-weight="400" font-stretch="normal" font-size="13" text-anchor="start" direction="ltr" writing-mode="lr-tb" unicode-bidi="normal" text-decoration="none" transform="matrix(0.95097 0 0 0.94878 508.613 321)">name</text><text fill="#999999" fill-opacity="1" font-family="Open Sans,Open Sans_MSFontService,sans-serif" font-style="normal" font-variant="normal" font-weight="400" font-stretch="normal" font-size="13" text-anchor="start" direction="ltr" writing-mode="lr-tb" unicode-bidi="normal" text-decoration="none" transform="matrix(0.95097 0 0 0.94878 595.35 321)">varchar</text></g><g><path d="M0 0 144.798 0 144.798 30.361 5.21181e-06 30.361Z" fill="#316896" fill-rule="nonzero" fill-opacity="1" transform="matrix(1.00231 0 0 1 271.005 242)"/><text fill="#FFFFFF" fill-opacity="1" font-family="Open Sans,Open Sans_MSFontService,sans-serif" font-style="normal" font-variant="normal" font-weight="700" font-stretch="normal" font-size="13" text-anchor="start" direction="ltr" writing-mode="lr-tb" unicode-bidi="normal" text-decoration="none" transform="matrix(0.95097 0 0 0.94878 280.514 260)">Article_Topic</text></g><g><path d="M0 0 144.798 0 144.798 30.361 5.21181e-06 30.361Z" fill="#F2F2F2" fill-rule="nonzero" fill-opacity="1" transform="matrix(1.00231 0 0 1 271.005 272.361)"/><text fill="#6F6F6F" fill-opacity="1" font-family="Open Sans,Open Sans_MSFontService,sans-serif" font-style="normal" font-variant="normal" font-weight="400" font-stretch="normal" font-size="13" text-anchor="start" direction="ltr" writing-mode="lr-tb" unicode-bidi="normal" text-decoration="none" transform="matrix(0.95097 0 0 0.94878 280.514 291)">article_id</text><text fill="#999999" fill-opacity="1" font-family="Open Sans,Open Sans_MSFontService,sans-serif" font-style="normal" font-variant="normal" font-weight="400" font-stretch="normal" font-size="13" text-anchor="start" direction="ltr" writing-mode="lr-tb" unicode-bidi="normal" text-decoration="none" transform="matrix(0.95097 0 0 0.94878 391.518 291)">int</text></g><g><path d="M0 0 144.798 0 144.798 30.361 5.21181e-06 30.361Z" fill="#F2F2F2" fill-rule="nonzero" fill-opacity="1" transform="matrix(1.00231 0 0 1 271.005 302.722)"/><text fill="#6F6F6F" fill-opacity="1" font-family="Open Sans,Open Sans_MSFontService,sans-serif" font-style="normal" font-variant="normal" font-weight="400" font-stretch="normal" font-size="13" text-anchor="start" direction="ltr" writing-mode="lr-tb" unicode-bidi="normal" text-decoration="none" transform="matrix(0.95097 0 0 0.94878 280.514 321)">topic_id</text><text fill="#999999" fill-opacity="1" font-family="Open Sans,Open Sans_MSFontService,sans-serif" font-style="normal" font-variant="normal" font-weight="400" font-stretch="normal" font-size="13" text-anchor="start" direction="ltr" writing-mode="lr-tb" unicode-bidi="normal" text-decoration="none" transform="matrix(0.95097 0 0 0.94878 391.518 321)">int</text></g><g><path d="M0 0 174.579 0 174.579 30.361-2.08472e-06 30.361Z" fill="#316896" fill-rule="nonzero" fill-opacity="1" transform="matrix(1.00231 0 0 1 499.103 374.333)"/><text fill="#FFFFFF" fill-opacity="1" font-family="Open Sans,Open Sans_MSFontService,sans-serif" font-style="normal" font-variant="normal" font-weight="700" font-stretch="normal" font-size="13" text-anchor="start" direction="ltr" writing-mode="lr-tb" unicode-bidi="normal" text-decoration="none" transform="matrix(0.95097 0 0 0.94878 508.613 393)">Author</text></g><g><path d="M0 0 174.579 0 174.579 30.361-2.08472e-06 30.361Z" fill="#F2F2F2" fill-rule="nonzero" fill-opacity="1" transform="matrix(1.00231 0 0 1 499.103 404.694)"/><text fill="#6F6F6F" fill-opacity="1" font-family="Open Sans,Open Sans_MSFontService,sans-serif" font-style="normal" font-variant="normal" font-weight="700" font-stretch="normal" font-size="13" text-anchor="start" direction="ltr" writing-mode="lr-tb" unicode-bidi="normal" text-decoration="none" transform="matrix(0.95097 0 0 0.94878 508.613 423)">id</text><path d="M6.22637 0.933979C7.77383 0.933979 9.02822 2.18836 9.02822 3.73582 9.02822 5.28328 7.77383 6.53767 6.22637 6.53767 5.8573 6.53767 5.50501 6.46622 5.18224 6.33652L4.35851 7.16035 3.73582 7.16035 3.73582 8.09433 2.80184 8.09433 2.80184 9.02822 0.933979 9.02822 0.933979 7.16035 3.54464 4.54959C3.46476 4.28574 3.42434 4.01154 3.42453 3.73582 3.42453 2.18836 4.67891 0.933979 6.22637 0.933979ZM6.22637 0C4.16325 0 2.49055 1.67242 2.49055 3.73582 2.49055 3.90765 2.50222 4.07871 2.52556 4.24788L0.136719 6.63672C0.0492417 6.72429 0 6.84308 0 6.9669L0 9.4952C0 9.75318 0.209111 9.9622 0.46699 9.9622L3.26883 9.9622C3.52671 9.9622 3.73582 9.75318 3.73582 9.4952L3.73582 9.02822 4.20281 9.02822C4.46069 9.02822 4.6698 8.8192 4.6698 8.56123L4.6698 8.17213 5.44904 7.39053C5.70312 7.44451 5.9629 7.47165 6.22637 7.47165 8.2895 7.47165 9.9622 5.79923 9.9622 3.73582 9.9622 1.6727 8.28978 0 6.22637 0ZM6.22637 2.80184C6.22637 3.3177 6.6445 3.73582 7.16035 3.73582 7.67611 3.73582 8.09433 3.3177 8.09433 2.80184 8.09433 2.28609 7.67611 1.86796 7.16035 1.86796 6.6445 1.86796 6.22637 2.28609 6.22637 2.80184Z" fill="#6F6F6F" fill-rule="nonzero" fill-opacity="1" transform="matrix(1.00231 0 0 1 524.013 413.47)"/><text fill="#999999" fill-opacity="1" font-family="Open Sans,Open Sans_MSFontService,sans-serif" font-style="normal" font-variant="normal" font-weight="700" font-stretch="normal" font-size="13" text-anchor="start" direction="ltr" writing-mode="lr-tb" unicode-bidi="normal" text-decoration="none" transform="matrix(0.95097 0 0 0.94878 647.312 423)">int</text></g><g><path d="M0 0 174.579 0 174.579 30.361-2.08472e-06 30.361Z" fill="#F2F2F2" fill-rule="nonzero" fill-opacity="1" transform="matrix(1.00231 0 0 1 499.103 435.055)"/><text fill="#6F6F6F" fill-opacity="1" font-family="Open Sans,Open Sans_MSFontService,sans-serif" font-style="normal" font-variant="normal" font-weight="400" font-stretch="normal" font-size="13" text-anchor="start" direction="ltr" writing-mode="lr-tb" unicode-bidi="normal" text-decoration="none" transform="matrix(0.95097 0 0 0.94878 508.613 453)">name</text><text fill="#999999" fill-opacity="1" font-family="Open Sans,Open Sans_MSFontService,sans-serif" font-style="normal" font-variant="normal" font-weight="400" font-stretch="normal" font-size="13" text-anchor="start" direction="ltr" writing-mode="lr-tb" unicode-bidi="normal" text-decoration="none" transform="matrix(0.95097 0 0 0.94878 621.053 453)">varchar</text></g><g><path d="M0 0 174.579 0 174.579 30.361-2.08472e-06 30.361Z" fill="#F2F2F2" fill-rule="nonzero" fill-opacity="1" transform="matrix(1.00231 0 0 1 499.103 465.416)"/><text fill="#6F6F6F" fill-opacity="1" font-family="Open Sans,Open Sans_MSFontService,sans-serif" font-style="normal" font-variant="normal" font-weight="400" font-stretch="normal" font-size="13" text-anchor="start" direction="ltr" writing-mode="lr-tb" unicode-bidi="normal" text-decoration="none" transform="matrix(0.95097 0 0 0.94878 508.613 484)">affiliation</text><text fill="#999999" fill-opacity="1" font-family="Open Sans,Open Sans_MSFontService,sans-serif" font-style="normal" font-variant="normal" font-weight="400" font-stretch="normal" font-size="13" text-anchor="start" direction="ltr" writing-mode="lr-tb" unicode-bidi="normal" text-decoration="none" transform="matrix(0.95097 0 0 0.94878 621.053 484)">varchar</text></g><g><path d="M0 0 174.579 0 174.579 30.361-2.08472e-06 30.361Z" fill="#F2F2F2" fill-rule="nonzero" fill-opacity="1" transform="matrix(1.00231 0 0 1 499.103 495.777)"/><text fill="#6F6F6F" fill-opacity="1" font-family="Open Sans,Open Sans_MSFontService,sans-serif" font-style="normal" font-variant="normal" font-weight="400" font-stretch="normal" font-size="13" text-anchor="start" direction="ltr" writing-mode="lr-tb" unicode-bidi="normal" text-decoration="none" transform="matrix(0.95097 0 0 0.94878 508.613 514)">email</text><text fill="#999999" fill-opacity="1" font-family="Open Sans,Open Sans_MSFontService,sans-serif" font-style="normal" font-variant="normal" font-weight="400" font-stretch="normal" font-size="13" text-anchor="start" direction="ltr" writing-mode="lr-tb" unicode-bidi="normal" text-decoration="none" transform="matrix(0.95097 0 0 0.94878 621.053 514)">varchar</text></g><g><path d="M0 0 155.422 0 155.422 30.361-3.35872e-06 30.361Z" fill="#316896" fill-rule="nonzero" fill-opacity="1" transform="matrix(1.00231 0 0 1 271.005 389.514)"/><text fill="#FFFFFF" fill-opacity="1" font-family="Open Sans,Open Sans_MSFontService,sans-serif" font-style="normal" font-variant="normal" font-weight="700" font-stretch="normal" font-size="13" text-anchor="start" direction="ltr" writing-mode="lr-tb" unicode-bidi="normal" text-decoration="none" transform="matrix(0.95097 0 0 0.94878 280.514 408)">Article_Author</text></g><g><path d="M0 0 155.422 0 155.422 30.361-3.35872e-06 30.361Z" fill="#F2F2F2" fill-rule="nonzero" fill-opacity="1" transform="matrix(1.00231 0 0 1 271.005 419.875)"/><text fill="#6F6F6F" fill-opacity="1" font-family="Open Sans,Open Sans_MSFontService,sans-serif" font-style="normal" font-variant="normal" font-weight="400" font-stretch="normal" font-size="13" text-anchor="start" direction="ltr" writing-mode="lr-tb" unicode-bidi="normal" text-decoration="none" transform="matrix(0.95097 0 0 0.94878 280.514 438)">article_id</text><text fill="#999999" fill-opacity="1" font-family="Open Sans,Open Sans_MSFontService,sans-serif" font-style="normal" font-variant="normal" font-weight="400" font-stretch="normal" font-size="13" text-anchor="start" direction="ltr" writing-mode="lr-tb" unicode-bidi="normal" text-decoration="none" transform="matrix(0.95097 0 0 0.94878 402.166 438)">int</text></g><g><path d="M0 0 155.422 0 155.422 30.361-3.35872e-06 30.361Z" fill="#F2F2F2" fill-rule="nonzero" fill-opacity="1" transform="matrix(1.00231 0 0 1 271.005 450.236)"/><text fill="#6F6F6F" fill-opacity="1" font-family="Open Sans,Open Sans_MSFontService,sans-serif" font-style="normal" font-variant="normal" font-weight="400" font-stretch="normal" font-size="13" text-anchor="start" direction="ltr" writing-mode="lr-tb" unicode-bidi="normal" text-decoration="none" transform="matrix(0.95097 0 0 0.94878 280.514 468)">author_id</text><text fill="#999999" fill-opacity="1" font-family="Open Sans,Open Sans_MSFontService,sans-serif" font-style="normal" font-variant="normal" font-weight="400" font-stretch="normal" font-size="13" text-anchor="start" direction="ltr" writing-mode="lr-tb" unicode-bidi="normal" text-decoration="none" transform="matrix(0.95097 0 0 0.94878 402.166 468)">int</text></g><g><path d="M0 0 184.348 0 184.348 30.361 2.89545e-06 30.361Z" fill="#316896" fill-rule="nonzero" fill-opacity="1" transform="matrix(1.00231 0 0 1 271.005 530.792)"/><text fill="#FFFFFF" fill-opacity="1" font-family="Open Sans,Open Sans_MSFontService,sans-serif" font-style="normal" font-variant="normal" font-weight="700" font-stretch="normal" font-size="13" text-anchor="start" direction="ltr" writing-mode="lr-tb" unicode-bidi="normal" text-decoration="none" transform="matrix(0.95097 0 0 0.94878 280.514 549)">ArticleRelationship</text></g><g><path d="M0 0 184.348 0 184.348 30.361 2.89545e-06 30.361Z" fill="#F2F2F2" fill-rule="nonzero" fill-opacity="1" transform="matrix(1.00231 0 0 1 271.005 561.153)"/><text fill="#6F6F6F" fill-opacity="1" font-family="Open Sans,Open Sans_MSFontService,sans-serif" font-style="normal" font-variant="normal" font-weight="400" font-stretch="normal" font-size="13" text-anchor="start" direction="ltr" writing-mode="lr-tb" unicode-bidi="normal" text-decoration="none" transform="matrix(0.95097 0 0 0.94878 280.514 579)">citing_article_id</text><text fill="#999999" fill-opacity="1" font-family="Open Sans,Open Sans_MSFontService,sans-serif" font-style="normal" font-variant="normal" font-weight="400" font-stretch="normal" font-size="13" text-anchor="start" direction="ltr" writing-mode="lr-tb" unicode-bidi="normal" text-decoration="none" transform="matrix(0.95097 0 0 0.94878 431.159 579)">int</text></g><g><path d="M0 0 184.348 0 184.348 30.361 2.89545e-06 30.361Z" fill="#F2F2F2" fill-rule="nonzero" fill-opacity="1" transform="matrix(1.00231 0 0 1 271.005 591.514)"/><text fill="#6F6F6F" fill-opacity="1" font-family="Open Sans,Open Sans_MSFontService,sans-serif" font-style="normal" font-variant="normal" font-weight="400" font-stretch="normal" font-size="13" text-anchor="start" direction="ltr" writing-mode="lr-tb" unicode-bidi="normal" text-decoration="none" transform="matrix(0.95097 0 0 0.94878 280.514 610)">cited_article_id</text><text fill="#999999" fill-opacity="1" font-family="Open Sans,Open Sans_MSFontService,sans-serif" font-style="normal" font-variant="normal" font-weight="400" font-stretch="normal" font-size="13" text-anchor="start" direction="ltr" writing-mode="lr-tb" unicode-bidi="normal" text-decoration="none" transform="matrix(0.95097 0 0 0.94878 431.159 610)">int</text></g><g><path d="M0 0 177.856 0 177.856 30.361 6.94908e-07 30.361Z" fill="#316896" fill-rule="nonzero" fill-opacity="1" transform="matrix(1.00231 0 0 1 720.612 242)"/><text fill="#FFFFFF" fill-opacity="1" font-family="Open Sans,Open Sans_MSFontService,sans-serif" font-style="normal" font-variant="normal" font-weight="700" font-stretch="normal" font-size="13" text-anchor="start" direction="ltr" writing-mode="lr-tb" unicode-bidi="normal" text-decoration="none" transform="matrix(0.95097 0 0 0.94878 730.122 260)">TopicRelationship</text></g><g><path d="M0 0 177.856 0 177.856 30.361 6.94908e-07 30.361Z" fill="#F2F2F2" fill-rule="nonzero" fill-opacity="1" transform="matrix(1.00231 0 0 1 720.612 272.361)"/><text fill="#6F6F6F" fill-opacity="1" font-family="Open Sans,Open Sans_MSFontService,sans-serif" font-style="normal" font-variant="normal" font-weight="400" font-stretch="normal" font-size="13" text-anchor="start" direction="ltr" writing-mode="lr-tb" unicode-bidi="normal" text-decoration="none" transform="matrix(0.95097 0 0 0.94878 730.122 291)">parent_topic_id</text><text fill="#999999" fill-opacity="1" font-family="Open Sans,Open Sans_MSFontService,sans-serif" font-style="normal" font-variant="normal" font-weight="400" font-stretch="normal" font-size="13" text-anchor="start" direction="ltr" writing-mode="lr-tb" unicode-bidi="normal" text-decoration="none" transform="matrix(0.95097 0 0 0.94878 874.259 291)">int</text></g><g><path d="M0 0 177.856 0 177.856 30.361 6.94908e-07 30.361Z" fill="#F2F2F2" fill-rule="nonzero" fill-opacity="1" transform="matrix(1.00231 0 0 1 720.612 302.722)"/><text fill="#6F6F6F" fill-opacity="1" font-family="Open Sans,Open Sans_MSFontService,sans-serif" font-style="normal" font-variant="normal" font-weight="400" font-stretch="normal" font-size="13" text-anchor="start" direction="ltr" writing-mode="lr-tb" unicode-bidi="normal" text-decoration="none" transform="matrix(0.95097 0 0 0.94878 730.122 321)">child_topic_id</text><text fill="#999999" fill-opacity="1" font-family="Open Sans,Open Sans_MSFontService,sans-serif" font-style="normal" font-variant="normal" font-weight="400" font-stretch="normal" font-size="13" text-anchor="start" direction="ltr" writing-mode="lr-tb" unicode-bidi="normal" text-decoration="none" transform="matrix(0.95097 0 0 0.94878 874.259 321)">int</text></g><g><path d="M0 0 221.284 0 221.284 30.361-4.05363e-06 30.361Z" fill="#316896" fill-rule="nonzero" fill-opacity="1" transform="matrix(1.00231 0 0 1 720.612 374.333)"/><text fill="#FFFFFF" fill-opacity="1" font-family="Open Sans,Open Sans_MSFontService,sans-serif" font-style="normal" font-variant="normal" font-weight="700" font-stretch="normal" font-size="13" text-anchor="start" direction="ltr" writing-mode="lr-tb" unicode-bidi="normal" text-decoration="none" transform="matrix(0.95097 0 0 0.94878 730.122 393)">AuthorRelationship</text></g><g><path d="M0 0 221.284 0 221.284 30.361-4.05363e-06 30.361Z" fill="#F2F2F2" fill-rule="nonzero" fill-opacity="1" transform="matrix(1.00231 0 0 1 720.612 404.694)"/><text fill="#6F6F6F" fill-opacity="1" font-family="Open Sans,Open Sans_MSFontService,sans-serif" font-style="normal" font-variant="normal" font-weight="400" font-stretch="normal" font-size="13" text-anchor="start" direction="ltr" writing-mode="lr-tb" unicode-bidi="normal" text-decoration="none" transform="matrix(0.95097 0 0 0.94878 730.122 423)">author1_id</text><text fill="#999999" fill-opacity="1" font-family="Open Sans,Open Sans_MSFontService,sans-serif" font-style="normal" font-variant="normal" font-weight="400" font-stretch="normal" font-size="13" text-anchor="start" direction="ltr" writing-mode="lr-tb" unicode-bidi="normal" text-decoration="none" transform="matrix(0.95097 0 0 0.94878 917.788 423)">int</text></g><g><path d="M0 0 221.284 0 221.284 30.361-4.05363e-06 30.361Z" fill="#F2F2F2" fill-rule="nonzero" fill-opacity="1" transform="matrix(1.00231 0 0 1 720.612 435.055)"/><text fill="#6F6F6F" fill-opacity="1" font-family="Open Sans,Open Sans_MSFontService,sans-serif" font-style="normal" font-variant="normal" font-weight="400" font-stretch="normal" font-size="13" text-anchor="start" direction="ltr" writing-mode="lr-tb" unicode-bidi="normal" text-decoration="none" transform="matrix(0.95097 0 0 0.94878 730.122 453)">author2_id</text><text fill="#999999" fill-opacity="1" font-family="Open Sans,Open Sans_MSFontService,sans-serif" font-style="normal" font-variant="normal" font-weight="400" font-stretch="normal" font-size="13" text-anchor="start" direction="ltr" writing-mode="lr-tb" unicode-bidi="normal" text-decoration="none" transform="matrix(0.95097 0 0 0.94878 917.788 453)">int</text></g><g><path d="M0 0 221.284 0 221.284 30.361-4.05363e-06 30.361Z" fill="#F2F2F2" fill-rule="nonzero" fill-opacity="1" transform="matrix(1.00231 0 0 1 720.612 465.416)"/><text fill="#6F6F6F" fill-opacity="1" font-family="Open Sans,Open Sans_MSFontService,sans-serif" font-style="normal" font-variant="normal" font-weight="400" font-stretch="normal" font-size="13" text-anchor="start" direction="ltr" writing-mode="lr-tb" unicode-bidi="normal" text-decoration="none" transform="matrix(0.95097 0 0 0.94878 730.122 484)">relationship_type</text><text fill="#999999" fill-opacity="1" font-family="Open Sans,Open Sans_MSFontService,sans-serif" font-style="normal" font-variant="normal" font-weight="400" font-stretch="normal" font-size="13" text-anchor="start" direction="ltr" writing-mode="lr-tb" unicode-bidi="normal" text-decoration="none" transform="matrix(0.95097 0 0 0.94878 889.374 484)">varchar</text></g></g></g></g></g></g></svg>